HIERARCHY
ROOT Hips
{
  OFFSET 0.0000 94.0000 0.0000
  CHANNELS 6 Xposition Yposition Zposition Yrotation Xrotation Zrotation
  JOINT Spine
  {
    OFFSET 0.0000 12.9947 0.0000
    CHANNELS 3 Yrotation Xrotation Zrotation
    JOINT Spine1
    {
      OFFSET 0.0000 12.7099 0.0000
      CHANNELS 3 Yrotation Xrotation Zrotation
      JOINT Spine2
      {
        OFFSET 0.0000 12.7829 0.0000
        CHANNELS 3 Yrotation Xrotation Zrotation
        JOINT LeftShoulder
        {
          OFFSET 7.0401 10.4351 0.0000
          CHANNELS 3 Yrotation Xrotation Zrotation
          JOINT LeftArm
          {
            OFFSET 0.0000 13.4599 0.0000
            CHANNELS 3 Yrotation Xrotation Zrotation
            JOINT LeftForeArm
            {
              OFFSET -0.0001 26.1001 0.0000
              CHANNELS 3 Yrotation Xrotation Zrotation
              JOINT LeftHand
              {
                OFFSET 0.0000 28.9001 0.0000
                CHANNELS 3 Yrotation Xrotation Zrotation
                JOINT LeftHandIndex1
                {
                  OFFSET -2.5612 8.0739 0.1030
                  CHANNELS 3 Yrotation Xrotation Zrotation
                  JOINT LeftHandIndex2
                  {
                    OFFSET 0.0000 4.5805 0.0000
                    CHANNELS 3 Yrotation Xrotation Zrotation
                    JOINT LeftHandIndex3
                    {
                      OFFSET 0.0000 2.8180 0.0000
                      CHANNELS 3 Yrotation Xrotation Zrotation
                      End Site
                      {
                        OFFSET 0.0000 1.3566 0.0000
                      }
                    }
                  }
                }
                JOINT LeftHandMiddle1
                {
                  OFFSET -0.5450 8.1365 0.1030
                  CHANNELS 3 Yrotation Xrotation Zrotation
                  JOINT LeftHandMiddle2
                  {
                    OFFSET 0.0000 4.7024 0.0000
                    CHANNELS 3 Yrotation Xrotation Zrotation
                    JOINT LeftHandMiddle3
                    {
                      OFFSET 0.0000 3.1016 0.0000
                      CHANNELS 3 Yrotation Xrotation Zrotation
                      End Site
                      {
                        OFFSET 0.0000 1.4991 0.0000
                      }
                    }
                  }
                }
                JOINT LeftHandPinky1
                {
                  OFFSET 3.1368 7.0180 0.1030
                  CHANNELS 3 Yrotation Xrotation Zrotation
                  JOINT LeftHandPinky2
                  {
                    OFFSET 0.0000 3.5540 0.0000
                    CHANNELS 3 Yrotation Xrotation Zrotation
                    JOINT LeftHandPinky3
                    {
                      OFFSET 0.0000 2.2339 0.0000
                      CHANNELS 3 Yrotation Xrotation Zrotation
                      End Site
                      {
                        OFFSET 0.0000 1.1205 0.0000
                      }
                    }
                  }
                }
                JOINT LeftHandRing1
                {
                  OFFSET 1.4405 7.8067 0.1031
                  CHANNELS 3 Yrotation Xrotation Zrotation
                  JOINT LeftHandRing2
                  {
                    OFFSET 0.0000 4.3922 0.0000
                    CHANNELS 3 Yrotation Xrotation Zrotation
                    JOINT LeftHandRing3
                    {
                      OFFSET 0.0000 2.8327 0.0000
                      CHANNELS 3 Yrotation Xrotation Zrotation
                      End Site
                      {
                        OFFSET 0.0000 1.3500 0.0000
                      }
                    }
                  }
                }
                JOINT LeftHandThumb1
                {
                  OFFSET -3.7710 1.6803 0.0975
                  CHANNELS 3 Yrotation Xrotation Zrotation
                  JOINT LeftHandThumb2
                  {
                    OFFSET 1.0516 3.8183 0.0000
                    CHANNELS 3 Yrotation Xrotation Zrotation
                    JOINT LeftHandThumb3
                    {
                      OFFSET 0.0000 3.0072 0.0000
                      CHANNELS 3 Yrotation Xrotation Zrotation
                      End Site
                      {
                        OFFSET 0.0000 1.7295 0.0000
                      }
                    }
                  }
                }
              }
            }
          }
        }
        JOINT Neck
        {
          OFFSET 0.0000 18.2093 0.0000
          CHANNELS 3 Yrotation Xrotation Zrotation
          JOINT Head
          {
            OFFSET 0.0000 11.0335 0.0000
            CHANNELS 3 Yrotation Xrotation Zrotation
            End Site
            {
              OFFSET 0.0000 8.0220 0.0000
            }
          }
        }
        JOINT RightShoulder
        {
          OFFSET -7.0401 10.4351 0.0000
          CHANNELS 3 Yrotation Xrotation Zrotation
          JOINT RightArm
          {
            OFFSET 0.0000 13.4599 0.0000
            CHANNELS 3 Yrotation Xrotation Zrotation
            JOINT RightForeArm
            {
              OFFSET 0.0000 26.1001 0.0000
              CHANNELS 3 Yrotation Xrotation Zrotation
              JOINT RightHand
              {
                OFFSET -0.0001 28.9001 0.0000
                CHANNELS 3 Yrotation Xrotation Zrotation
                JOINT RightHandIndex1
                {
                  OFFSET 2.5611 8.0740 0.1030
                  CHANNELS 3 Yrotation Xrotation Zrotation
                  JOINT RightHandIndex2
                  {
                    OFFSET 0.0000 4.5806 -0.0001
                    CHANNELS 3 Yrotation Xrotation Zrotation
                    JOINT RightHandIndex3
                    {
                      OFFSET 0.0000 2.8181 0.0000
                      CHANNELS 3 Yrotation Xrotation Zrotation
                      End Site
                      {
                        OFFSET 0.0000 1.3566 0.0000
                      }
                    }
                  }
                }
                JOINT RightHandMiddle1
                {
                  OFFSET 0.5450 8.1366 0.1030
                  CHANNELS 3 Yrotation Xrotation Zrotation
                  JOINT RightHandMiddle2
                  {
                    OFFSET 0.0000 4.7025 0.0000
                    CHANNELS 3 Yrotation Xrotation Zrotation
                    JOINT RightHandMiddle3
                    {
                      OFFSET 0.0000 3.1016 0.0000
                      CHANNELS 3 Yrotation Xrotation Zrotation
                      End Site
                      {
                        OFFSET 0.0000 1.4991 0.0000
                      }
                    }
                  }
                }
                JOINT RightHandPinky1
                {
                  OFFSET -3.1368 7.0181 0.1030
                  CHANNELS 3 Yrotation Xrotation Zrotation
                  JOINT RightHandPinky2
                  {
                    OFFSET 0.0000 3.5541 0.0000
                    CHANNELS 3 Yrotation Xrotation Zrotation
                    JOINT RightHandPinky3
                    {
                      OFFSET 0.0000 2.2340 0.0000
                      CHANNELS 3 Yrotation Xrotation Zrotation
                      End Site
                      {
                        OFFSET 0.0000 1.1205 0.0000
                      }
                    }
                  }
                }
                JOINT RightHandRing1
                {
                  OFFSET -1.4405 7.8068 0.1030
                  CHANNELS 3 Yrotation Xrotation Zrotation
                  JOINT RightHandRing2
                  {
                    OFFSET 0.0000 4.3923 -0.0001
                    CHANNELS 3 Yrotation Xrotation Zrotation
                    JOINT RightHandRing3
                    {
                      OFFSET 0.0000 2.8327 0.0000
                      CHANNELS 3 Yrotation Xrotation Zrotation
                      End Site
                      {
                        OFFSET 0.0000 1.3500 0.0000
                      }
                    }
                  }
                }
                JOINT RightHandThumb1
                {
                  OFFSET 3.7710 1.6071 0.0975
                  CHANNELS 3 Yrotation Xrotation Zrotation
                  JOINT RightHandThumb2
                  {
                    OFFSET -1.0904 3.8813 -0.0001
                    CHANNELS 3 Yrotation Xrotation Zrotation
                    JOINT RightHandThumb3
                    {
                      OFFSET 0.0000 3.0072 -0.0001
                      CHANNELS 3 Yrotation Xrotation Zrotation
                      End Site
                      {
                        OFFSET 0.0000 1.7295 0.0000
                      }
                    }
                  }
                }
              }
            }
          }
        }
      }
    }
  }
  JOINT LeftUpLeg
  {
    OFFSET 8.1000 0.0000 0.0000
    CHANNELS 3 Yrotation Xrotation Zrotation
    JOINT LeftLeg
    {
      OFFSET 0.0000 43.2000 0.0000
      CHANNELS 3 Yrotation Xrotation Zrotation
      JOINT LeftFoot
      {
        OFFSET 0.0000 43.3000 0.0000
        CHANNELS 3 Yrotation Xrotation Zrotation
        JOINT LeftToeBase
        {
          OFFSET 0.0000 14.5727 0.0000
          CHANNELS 3 Yrotation Xrotation Zrotation
          End Site
          {
            OFFSET 0.0000 3.5000 0.0000
          }
        }
      }
    }
  }
  JOINT RightUpLeg
  {
    OFFSET -8.1000 0.0000 0.0000
    CHANNELS 3 Yrotation Xrotation Zrotation
    JOINT RightLeg
    {
      OFFSET 0.0000 43.2000 0.0000
      CHANNELS 3 Yrotation Xrotation Zrotation
      JOINT RightFoot
      {
        OFFSET 0.0000 43.3000 0.0000
        CHANNELS 3 Yrotation Xrotation Zrotation
        JOINT RightToeBase
        {
          OFFSET 0.0000 14.5727 0.0000
          CHANNELS 3 Yrotation Xrotation Zrotation
          End Site
          {
            OFFSET 0.0000 3.5000 0.0000
          }
        }
      }
    }
  }
}
MOTION
Frames: 9
Frame Time: 0.033333
0.0000 94.0000 0.0000 0.0000 0.0000 0.0000 0.0000 0.0000 0.0000 0.0000 0.0000 0.0000 0.0000 0.0000 0.0000 -270.0000 90.0000 0.0000 0.0000 0.0000 0.0000 0.0000 0.0000 0.0000 0.0000 0.0000 0.0000 0.0000 0.0000 0.0001 0.0000 0.0000 0.0000 0.0000 -0.0013 -0.0008 0.0000 -0.0004 0.0001 0.0000 0.0000 0.0000 0.0000 0.0000 0.0000 0.0000 0.0002 0.0000 0.0000 -0.0006 0.0003 0.0000 0.0004 -0.0006 0.0000 0.0000 0.0001 0.0000 0.0000 0.0000 0.0000 -0.0010 -0.0002 0.0000 -30.0000 0.0000 0.0000 30.0000 0.0000 0.0000 0.0000 0.0000 0.0000 0.0000 0.0000 0.0000 0.0000 0.0000 270.0001 90.0000 0.0000 0.0000 0.0000 0.0000 0.0000 0.0000 0.0000 0.0000 0.0000 0.0000 0.0000 -0.0001 0.0001 0.0000 0.0000 0.0000 0.0000 -0.0006 0.0003 0.0000 -0.0001 0.0001 0.0000 0.0000 0.0000 0.0000 0.0000 0.0000 0.0000 0.0007 0.0001 0.0000 -0.0011 0.0001 0.0000 -0.0008 0.0003 0.0000 0.0001 0.0000 0.0000 0.0000 0.0000 0.0000 -0.0009 0.0000 0.0000 30.0000 0.0000 0.0000 30.0000 0.0000 0.0000 0.0000 0.0000 0.0000 0.0000 180.0000 0.0000 0.0001 0.0826 -0.1744 64.6492 -0.1930 0.0000 25.3510 0.0000 0.0000 0.0000 180.0000 0.0000 0.0000 -0.0827 0.1745 64.6492 0.1931 0.0000 25.3508 -0.0001 
4.2132 92.6685 -0.1325 10.3341 4.2024 5.3380 0.0000 0.0000 0.0000 0.0000 0.0000 0.0000 -23.0890 0.0000 0.0000 -270.0000 90.0000 0.0000 56.1738 62.7476 52.5323 0.9809 6.0856 18.5797 0.0000 0.0000 0.0000 4.4556 17.5008 8.6883 0.0000 18.0001 0.0000 0.0000 17.9987 -0.0008 0.0000 17.9996 5.4001 0.0000 18.0001 0.0000 0.0001 18.0000 0.0001 -22.7691 18.0024 -13.2938 -0.0003 17.9994 0.0003 -0.0001 18.0004 -0.0006 -11.4059 19.2849 -1.9366 0.0000 18.0000 0.0000 0.0000 17.9990 -0.0002 7.8154 17.2299 40.9626 -3.7944 -4.3943 -23.7935 -0.3550 6.3509 -6.3901 0.0000 0.0000 0.0000 18.9423 -17.0358 -8.6161 270.0001 90.0000 0.0000 -70.7559 58.9578 -87.7083 -0.0126 0.0481 -24.7975 0.0000 0.0000 0.0000 -4.4558 17.5007 -8.6881 0.0000 18.0000 0.0000 0.0000 17.9994 0.0002 -0.0001 17.9999 -5.3999 0.0000 18.0000 0.0000 0.0000 18.0000 0.0000 22.7693 18.0026 13.2939 0.0000 17.9989 0.0001 0.0000 17.9992 0.0002 11.4057 19.2849 1.9367 0.0000 18.0000 0.0000 0.0000 17.9992 0.0000 -7.8080 17.2411 -41.2484 3.8538 -4.4546 24.0794 0.3549 6.3508 6.3902 10.2773 7.7589 -175.0480 0.0068 -7.8907 0.0465 -4.1060 66.2795 -4.7567 0.0001 37.4900 1.7558 -2.4833 15.5786 177.0164 0.0021 -10.5116 -0.0952 7.4209 64.5309 8.5295 -0.0001 48.8842 1.6441 
3.9481 92.5416 -0.3223 10.5344 4.3784 5.3778 0.0000 0.0000 0.0000 0.0000 0.0000 0.0000 -22.9692 0.0000 0.0000 -270.0000 90.0000 0.0000 60.3483 58.9068 56.7951 0.8713 4.9279 20.3482 0.0000 0.0000 0.0000 4.4556 17.5008 8.6883 0.0000 18.0000 0.0000 0.0000 17.9987 -0.0008 0.0000 17.9996 5.4001 0.0000 18.0000 0.0000 0.0001 18.0000 0.0001 -22.7691 18.0024 -13.2938 -0.0003 17.9994 0.0003 -0.0001 18.0004 -0.0006 -11.4059 19.2849 -1.9366 0.0000 18.0000 0.0000 0.0000 17.9990 -0.0001 7.8154 17.2299 40.9626 -3.7944 -4.3943 -23.7934 -0.3550 6.3509 -6.3901 0.0000 0.0000 0.0000 18.1253 -17.4027 -8.4552 270.0001 90.0000 0.0000 -70.1022 61.0672 -87.2609 -0.0098 0.0375 -24.6901 0.0000 0.0000 0.0000 -4.4558 17.5007 -8.6881 0.0000 18.0000 -0.0001 0.0000 17.9994 0.0002 -0.0001 17.9999 -5.3999 0.0000 18.0000 0.0000 0.0000 18.0000 0.0000 22.7693 18.0026 13.2939 0.0000 17.9989 0.0001 0.0000 17.9992 0.0002 11.4057 19.2849 1.9367 0.0000 18.0000 0.0000 0.0000 17.9992 0.0000 -7.8080 17.2411 -41.2485 3.8538 -4.4546 24.0794 0.3549 6.3508 6.3902 9.7159 5.6237 -175.0391 0.0034 -11.4694 0.0671 -4.1418 67.6035 -4.7609 0.0001 37.7104 1.8105 -2.7279 14.6598 177.1400 0.0044 -11.8083 -0.1069 7.6485 65.6142 8.7381 -0.0001 48.4618 1.6401 
3.5914 92.3746 -0.5825 10.8376 4.6273 5.4289 0.0000 0.0000 0.0000 0.0000 0.0000 0.0000 -22.9137 0.0000 0.0000 -270.0000 90.0000 0.0000 63.5265 54.6232 59.9667 0.7011 3.6807 21.8966 0.0000 0.0000 0.0000 4.4556 17.5008 8.6883 0.0000 18.0000 0.0000 0.0000 17.9987 -0.0008 0.0000 17.9996 5.4001 0.0000 18.0000 0.0000 0.0001 18.0000 0.0001 -22.7691 18.0024 -13.2938 -0.0003 17.9994 0.0004 -0.0001 18.0004 -0.0006 -11.4059 19.2849 -1.9366 0.0000 18.0000 0.0000 0.0000 17.9990 -0.0001 7.8155 17.2299 40.9626 -3.7944 -4.3944 -23.7934 -0.3550 6.3509 -6.3902 0.0000 0.0000 0.0000 17.2556 -17.8420 -8.2715 270.0001 90.0000 0.0000 -69.0013 63.9454 -86.5090 0.0058 -0.0222 -24.4895 0.0000 0.0000 0.0000 -4.4558 17.5007 -8.6881 0.0000 18.0000 -0.0001 0.0000 17.9994 0.0002 -0.0001 17.9999 -5.3999 0.0000 18.0000 0.0000 0.0000 18.0000 0.0000 22.7693 18.0027 13.2939 0.0000 17.9989 0.0001 -0.0001 17.9992 0.0002 11.4057 19.2849 1.9367 0.0000 18.0000 0.0000 0.0000 17.9992 0.0000 -7.8081 17.2412 -41.2485 3.8538 -4.4547 24.0796 0.3549 6.3508 6.3902 9.1012 3.3863 -174.9849 -0.0010 -14.9409 0.0863 -4.0848 68.7063 -4.6666 0.0001 37.9896 1.8844 -3.0423 13.5202 177.3255 0.0073 -13.3293 -0.1201 7.9851 66.9340 9.0572 -0.0001 47.9094 1.6466 
3.1748 92.1836 -0.9018 11.2353 4.9201 5.4892 0.0000 0.0000 0.0000 0.0000 0.0000 0.0000 -22.9498 0.0000 0.0000 -270.0000 90.0000 0.0000 65.7499 50.4109 62.0464 0.4981 2.4740 23.1202 0.0000 0.0000 0.0000 4.4556 17.5008 8.6883 0.0000 18.0000 0.0000 0.0000 17.9987 -0.0008 0.0000 17.9996 5.4001 0.0000 18.0000 0.0000 0.0001 18.0000 0.0001 -22.7691 18.0024 -13.2938 -0.0003 17.9994 0.0003 0.0000 18.0004 -0.0006 -11.4059 19.2849 -1.9366 0.0000 18.0000 0.0000 0.0000 17.9990 -0.0001 7.8155 17.2299 40.9626 -3.7944 -4.3944 -23.7935 -0.3550 6.3509 -6.3901 0.0000 0.0000 0.0000 16.4212 -18.3098 -8.0847 270.0001 90.0000 0.0000 -67.3713 67.3051 -85.3312 0.0464 -0.1805 -24.2526 0.0000 0.0000 0.0000 -4.4558 17.5007 -8.6881 0.0000 18.0000 -0.0001 0.0000 17.9994 0.0002 -0.0001 17.9999 -5.3999 0.0000 18.0000 0.0000 0.0000 18.0000 0.0000 22.7693 18.0026 13.2939 0.0000 17.9989 0.0001 0.0000 17.9992 0.0002 11.4057 19.2849 1.9367 0.0000 18.0000 0.0000 0.0000 17.9992 0.0000 -7.8081 17.2411 -41.2484 3.8538 -4.4546 24.0793 0.3549 6.3508 6.3902 8.4708 1.1771 -174.8895 -0.0058 -18.1219 0.1030 -3.9614 69.5538 -4.5060 0.0001 38.2904 1.9692 -3.4305 12.2515 177.5522 0.0107 -14.9528 -0.1334 8.4129 68.3504 9.4710 -0.0001 47.2957 1.6615 
2.7458 91.9886 -1.2427 11.6925 5.2105 5.5533 0.0000 0.0000 0.0000 0.0000 0.0000 0.0000 -23.0871 0.0000 0.0000 -270.0000 90.0000 0.0000 67.2330 46.7825 63.2337 0.3057 1.4632 23.9809 0.0000 0.0000 0.0000 4.4556 17.5008 8.6883 0.0000 18.0001 0.0000 0.0000 17.9987 -0.0008 0.0000 17.9996 5.4001 0.0000 18.0001 0.0000 0.0001 18.0000 0.0001 -22.7691 18.0024 -13.2938 -0.0003 17.9994 0.0003 -0.0001 18.0004 -0.0006 -11.4059 19.2849 -1.9366 0.0000 18.0000 0.0000 0.0000 17.9990 -0.0001 7.8154 17.2299 40.9625 -3.7944 -4.3944 -23.7934 -0.3550 6.3509 -6.3901 0.0000 0.0000 0.0000 15.7403 -18.7469 -7.9224 270.0001 90.0000 0.0000 -65.1957 70.7906 -83.6281 0.1099 -0.4331 -24.0350 0.0000 0.0000 0.0000 -4.4558 17.5007 -8.6881 0.0000 18.0000 0.0000 0.0000 17.9994 0.0002 -0.0001 17.9999 -5.3999 0.0000 18.0000 0.0000 0.0000 18.0000 0.0000 22.7693 18.0026 13.2939 0.0000 17.9989 0.0001 0.0000 17.9992 0.0002 11.4057 19.2849 1.9367 0.0000 18.0000 0.0000 0.0000 17.9992 0.0000 -7.8081 17.2411 -41.2485 3.8538 -4.4546 24.0796 0.3549 6.3508 6.3902 7.8503 -0.8488 -174.7672 -0.0105 -20.8687 0.1166 -3.8050 70.1544 -4.3164 0.0001 38.5869 2.0555 -3.8395 11.0090 177.8000 0.0140 -16.5013 -0.1449 8.8962 69.7015 9.9454 -0.0001 46.6951 1.6848 
2.3398 91.8017 -1.5538 12.1590 5.4583 5.6130 0.0000 0.0000 0.0000 0.0000 0.0000 0.0000 -23.3206 0.0000 0.0000 -270.0000 90.0000 0.0000 68.1519 44.1500 63.7418 0.1722 0.8078 24.4724 0.0000 0.0000 0.0000 4.4556 17.5008 8.6883 0.0000 18.0001 0.0000 0.0000 17.9987 -0.0008 0.0000 17.9996 5.4001 0.0000 18.0000 0.0000 0.0001 18.0000 0.0001 -22.7691 18.0024 -13.2938 -0.0003 17.9994 0.0004 -0.0001 18.0004 -0.0006 -11.4059 19.2849 -1.9366 0.0000 18.0000 0.0000 0.0000 17.9990 -0.0001 7.8154 17.2299 40.9625 -3.7944 -4.3943 -23.7934 -0.3550 6.3509 -6.3901 0.0000 0.0000 0.0000 15.3574 -19.0986 -7.8161 270.0001 90.0000 0.0000 -62.5344 74.1183 -81.3772 0.1846 -0.7357 -23.8547 0.0000 0.0000 0.0000 -4.4558 17.5007 -8.6881 0.0000 18.0000 -0.0001 0.0000 17.9994 0.0002 -0.0001 17.9999 -5.3999 0.0000 18.0000 0.0000 0.0000 18.0000 0.0000 22.7693 18.0026 13.2939 0.0000 17.9989 0.0001 -0.0001 17.9992 0.0002 11.4057 19.2849 1.9367 0.0000 18.0000 0.0000 0.0000 17.9992 0.0000 -7.8081 17.2411 -41.2485 3.8538 -4.4546 24.0794 0.3549 6.3508 6.3902 7.2597 -2.5801 -174.6256 -0.0148 -23.1378 0.1272 -3.6577 70.5600 -4.1429 0.0001 38.8635 2.1365 -4.1840 9.9322 178.0619 0.0170 -17.8373 -0.1537 9.3920 70.8811 10.4372 -0.0001 46.1563 1.7183 
1.9819 91.6257 -1.7616 12.5895 5.6461 5.6608 0.0000 0.0000 0.0000 0.0000 0.0000 0.0000 -23.6241 0.0000 0.0000 -270.0000 90.0000 0.0000 68.6007 42.7120 63.7497 0.1257 0.5863 24.6314 0.0000 0.0000 0.0000 4.4556 17.5008 8.6883 0.0000 18.0001 0.0000 0.0000 17.9987 -0.0008 0.0000 17.9996 5.4001 0.0000 18.0001 0.0000 0.0001 18.0000 0.0001 -22.7691 18.0024 -13.2938 -0.0003 17.9994 0.0003 -0.0001 18.0004 -0.0006 -11.4059 19.2848 -1.9366 0.0000 18.0000 0.0000 0.0000 17.9990 -0.0001 7.8154 17.2299 40.9626 -3.7944 -4.3943 -23.7935 -0.3550 6.3509 -6.3901 0.0000 0.0000 0.0000 15.4158 -19.3263 -7.7965 270.0001 90.0000 0.0000 -59.4826 77.1271 -78.6293 0.2623 -1.0562 -23.6951 0.0000 0.0000 0.0000 -4.4558 17.5007 -8.6881 0.0000 18.0000 0.0000 0.0000 17.9994 0.0002 0.0000 17.9999 -5.3999 0.0000 18.0000 0.0000 0.0000 18.0000 0.0000 22.7693 18.0026 13.2939 0.0000 17.9989 0.0001 0.0000 17.9992 0.0002 11.4057 19.2849 1.9367 0.0000 18.0000 0.0000 0.0000 17.9992 0.0000 -7.8081 17.2411 -41.2485 3.8538 -4.4546 24.0796 0.3549 6.3508 6.3902 6.7231 -3.9363 -174.4665 -0.0185 -24.9269 0.1354 -3.5431 70.8314 -4.0094 0.0001 39.1205 2.2108 -4.3905 9.1534 178.3361 0.0191 -18.8226 -0.1594 9.8554 71.8214 10.9006 -0.0001 45.7091 1.7642 
1.6873 91.4543 -1.8030 12.9545 5.7749 5.6929 0.0000 0.0000 0.0000 0.0000 0.0000 0.0000 -23.9522 0.0000 0.0000 -270.0000 90.0000 0.0000 68.6362 42.4078 63.4033 0.1607 0.7533 24.5326 0.0000 0.0000 0.0000 4.4556 17.5008 8.6883 0.0000 18.0001 0.0000 0.0000 17.9987 -0.0008 0.0000 17.9996 5.4001 0.0000 18.0000 0.0000 0.0001 18.0000 0.0001 -22.7691 18.0024 -13.2938 -0.0003 17.9994 0.0003 0.0000 18.0004 -0.0006 -11.4059 19.2848 -1.9366 0.0000 18.0000 0.0000 0.0000 17.9990 -0.0001 7.8154 17.2299 40.9625 -3.7944 -4.3943 -23.7935 -0.3550 6.3509 -6.3901 0.0000 0.0000 0.0000 16.0471 -19.4015 -7.8907 270.0001 90.0000 0.0000 -56.0889 79.7486 -75.4300 0.3424 -1.3939 -23.5274 0.0000 0.0000 0.0000 -4.4558 17.5007 -8.6881 0.0000 18.0000 0.0000 0.0000 17.9993 0.0002 0.0000 17.9999 -5.3999 0.0000 18.0000 0.0000 0.0000 18.0000 0.0000 22.7693 18.0026 13.2939 0.0000 17.9989 0.0001 0.0000 17.9992 0.0002 11.4057 19.2849 1.9367 0.0000 18.0000 0.0000 0.0000 17.9992 0.0000 -7.8081 17.2411 -41.2484 3.8538 -4.4546 24.0795 0.3549 6.3508 6.3902 6.2718 -4.8971 -174.2890 -0.0216 -26.2940 0.1422 -3.4669 71.0350 -3.9198 0.0001 39.3646 2.2806 -4.4087 8.7319 178.6243 0.0204 -19.4187 -0.1625 10.2354 72.5094 11.2812 -0.0001 45.3785 1.8236 
